<?xml version="1.0" standalone="no"?>
<!DOCTYPE svg PUBLIC "-//W3C//DTD SVG 20010904//EN"
 "http://www.w3.org/TR/2001/REC-SVG-20010904/DTD/svg10.dtd">
<svg version="1.0" xmlns="http://www.w3.org/2000/svg"
 width="90.000000pt" height="90.000000pt" viewBox="0 0 90.000000 90.000000"
 preserveAspectRatio="xMidYMid meet">
<metadata>
Created by potrace 1.10, written by Peter Selinger 2001-2011
</metadata>
<g transform="translate(0.000000,90.000000) scale(0.100000,-0.100000)"
fill="#000000" stroke="none">
<path d="M341 874 c-81 -22 -147 -62 -206 -126 -103 -111 -140 -244 -109 -395
4 -21 10 -23 78 -23 72 0 74 1 86 30 16 38 37 38 45 0 10 -47 22 -36 35 35 12
65 26 88 39 66 4 -6 13 -51 20 -99 l12 -89 52 5 c118 10 191 81 186 180 -4 77
22 100 40 35 23 -81 -33 -194 -113 -232 -25 -11 -66 -21 -90 -21 -34 0 -47 -5
-58 -22 -22 -32 -35 -15 -43 54 -9 80 -21 104 -30 63 -4 -17 -10 -43 -14 -59
-11 -46 -29 -43 -43 8 -13 48 -22 57 -32 31 -4 -12 -23 -15 -81 -15 l-75 0 21
-43 c68 -135 203 -224 367 -243 65 -7 149 10 229 48 65 30 167 133 198 201 29
62 44 147 26 147 -6 0 -10 -3 -9 -7 6 -19 -69 -183 -83 -183 -6 0 -8 -4 -5 -9
8 -12 -31 -44 -43 -36 -6 3 -9 0 -6 -8 16 -39 -171 -127 -270 -127 -54 0 -149
25 -174 47 -11 9 -27 18 -36 19 -24 4 -66 34 -60 43 2 5 -3 8 -13 7 -10 0 -16
6 -16 16 1 10 -2 16 -6 13 -12 -8 -53 43 -45 56 5 8 4 10 -3 5 -7 -4 -12 -1
-12 9 0 9 5 13 10 10 6 -3 10 -2 10 2 0 5 18 8 40 8 22 0 40 -5 40 -10 0 -6 9
-19 21 -28 11 -10 18 -24 16 -31 -4 -11 0 -11 18 -2 13 6 21 14 19 18 -12 18
7 6 34 -23 l28 -30 48 25 c37 20 53 23 67 15 14 -7 19 -6 19 2 0 7 3 9 7 6 3
-4 13 -1 21 6 13 10 14 9 7 -3 -5 -8 11 2 35 22 24 21 48 38 52 38 5 0 6 5 3
10 -3 6 -1 10 5 10 6 0 8 5 5 10 -3 6 -2 10 3 10 12 0 42 66 42 93 0 13 6 29
13 36 7 8 7 11 1 8 -7 -4 -14 2 -17 12 -3 12 1 22 10 25 8 3 12 10 8 15 -3 5
4 27 16 48 37 66 40 88 14 113 -20 19 -30 21 -74 15 -28 -4 -51 -11 -51 -17 0
-5 -4 -7 -9 -4 -5 4 -12 0 -14 -6 -4 -10 -6 -10 -6 0 -1 7 -6 10 -13 6 -7 -4
-8 -3 -4 4 4 6 -2 19 -13 29 -11 9 -18 20 -16 23 3 4 -7 6 -20 4 -14 -1 -25 3
-25 9 0 7 -5 5 -10 -3 -5 -8 -10 -11 -10 -6 0 5 -8 -1 -19 -12 -10 -12 -22
-18 -26 -14 -5 4 -5 1 -1 -6 4 -7 2 -20 -6 -29 -11 -14 -11 -16 2 -8 13 8 13
7 1 -8 -7 -9 -10 -17 -5 -17 5 0 -8 -15 -28 -34 -20 -19 -34 -37 -30 -42 4 -4
0 -5 -9 -2 -12 5 -15 1 -12 -16 3 -13 -7 -35 -26 -60 -17 -21 -28 -42 -25 -47
5 -8 -26 -14 -49 -10 -5 1 -6 -3 -2 -9 9 -14 -8 -13 -25 3 -12 10 -12 9 -3 -3
20 -26 3 -38 -64 -48 -41 -5 -57 23 -54 100 3 73 15 116 38 135 10 8 12 12 6
8 -7 -3 -13 -1 -13 4 0 6 5 11 11 11 5 0 7 5 4 10 -3 6 -1 10 4 10 6 0 11 6
11 14 0 23 110 129 155 150 22 11 52 25 68 33 15 8 27 12 27 9 0 -3 11 -1 25
4 18 7 25 6 25 -3 0 -9 2 -9 8 1 5 8 16 10 27 6 12 -5 16 -4 12 3 -5 7 0 9 13
6 11 -3 17 -10 13 -17 -4 -6 2 -4 12 4 17 14 18 13 11 -5 -6 -16 -5 -17 5 -8
9 9 16 10 26 2 9 -9 13 -8 13 0 0 8 6 9 18 2 9 -5 22 -10 27 -11 29 -4 135
-74 170 -112 41 -45 86 -129 90 -170 4 -37 4 -38 21 -31 38 14 -26 162 -104
240 -113 112 -280 158 -431 117z m143 -190 c20 -20 20 -48 0 -69 -17 -16 -53
-12 -66 9 -31 47 27 100 66 60z m201 -33 c8 -14 -38 -107 -50 -101 -11 5 -11
11 0 53 7 26 6 27 -20 17 -37 -14 -47 -13 -43 7 5 26 99 45 113 24z m-207 -71
c35 -6 61 -6 82 2 17 5 34 7 38 3 11 -11 -50 -55 -78 -55 -21 -1 -33 -15 -74
-90 -28 -48 -58 -99 -67 -112 -34 -44 -34 6 -1 110 32 101 28 121 -14 81 -41
-39 -55 -33 -30 13 30 57 54 65 144 48z m61 -87 c-1 -5 0 -10 1 -13 7 -20 7
-41 -2 -47 -6 -3 -8 -1 -5 4 4 6 0 16 -8 23 -12 10 -13 16 -4 26 13 16 20 18
18 7z m-33 -58 c18 -27 13 -54 -19 -98 -26 -37 -44 -22 -28 24 8 22 8 36 0 45
-7 9 -6 18 3 33 17 27 24 26 44 -4z"/>
</g>
</svg>
